<svg width="40" height="29" viewBox="0 0 40 29" fill="none"
    xmlns="http://www.w3.org/2000/svg">
    <path d="M8.87512 29C6.73914 29 4.80571 28.2252 3.07483 26.6756C1.34395 25.126 0.478516 22.6908 0.478516 19.3702C0.478516 16.5293 0.957269 13.8728 1.91478 11.4008C2.90911 8.92875 4.23489 6.73346 5.89211 4.81489C7.58616 2.85941 9.46435 1.25445 11.5267 0L14.7306 1.6603C14.0678 2.25064 13.276 3.15458 12.3553 4.37214C11.4346 5.5528 10.5876 6.95483 9.81421 8.57824C9.07767 10.2017 8.65415 11.9542 8.54367 13.8359C10.7165 13.9466 12.5394 14.666 14.0125 15.9943C15.5224 17.3225 16.2774 19.0382 16.2774 21.1412C16.2774 23.5763 15.5408 25.4949 14.0678 26.8969C12.5947 28.299 10.8638 29 8.87512 29ZM31.9658 29C29.8666 29 27.9516 28.2252 26.2207 26.6756C24.5267 25.126 23.6796 22.6908 23.6796 19.3702C23.6796 16.5293 24.1584 13.8728 25.1159 11.4008C26.1102 8.92875 27.436 6.73346 29.0932 4.81489C30.7505 2.85941 32.5918 1.25445 34.6173 0L37.8213 1.6603C37.1584 2.25064 36.3666 3.15458 35.4459 4.37214C34.5253 5.5528 33.6966 6.95483 32.9601 8.57824C32.2604 10.2017 31.8553 11.9542 31.7448 13.8359C33.844 13.9466 35.6485 14.666 37.1584 15.9943C38.7051 17.3225 39.4785 19.0382 39.4785 21.1412C39.4785 23.5763 38.7236 25.4949 37.2136 26.8969C35.7037 28.299 33.9544 29 31.9658 29Z" fill="#1C1C1C"/>
</svg>

